# xmcd CD database file
#
# Track frame offsets:
#	150
#	17206
#	30428
#	45499
#	57685
#	74382
#	91060
#
# Disc length: 1502 seconds
#
# Revision: 0
# Processed by: cddbd v1.4PL0 Copyright (c) Steve Scherf et al.
# Submitted via: CDex 1.40Beta8
#
DISCID=5505dc07
DTITLE=The Two Dollar Pistols with Tift Merritt - The Two Dollar Pistols with Tift Merritt
DYEAR=1999
DGENRE=Country
TTITLE0=If Only You Were Mine
TTITLE1=Just Someone I Used To Know
TTITLE2=We Had It All
TTITLE3=Suppose Tonight Would Be Our Last
TTITLE4=Counting The Hours
TTITLE5=(I'm So) Afraid of Losing You Again
TTITLE6=One Paper Kid
EXTD=YEAR: 1999 ID3G: 2
EXTT0=
EXTT1=
EXTT2=
EXTT3=
EXTT4=
EXTT5=
EXTT6=
PLAYORDER=
